<?xml version="1.0" standalone="no"?>
<!DOCTYPE svg PUBLIC "-//W3C//DTD SVG 20010904//EN"
 "http://www.w3.org/TR/2001/REC-SVG-20010904/DTD/svg10.dtd">
<svg version="1.0" xmlns="http://www.w3.org/2000/svg"
 width="420.000000pt" height="420.000000pt" viewBox="0 0 420.000000 420.000000"
 preserveAspectRatio="xMidYMid meet">
<metadata>
Created by potrace 1.11, written by Peter Selinger 2001-2013
</metadata>
<g transform="translate(0.000000,420.000000) scale(0.100000,-0.100000)"
fill="#000000" stroke="none">
<path d="M110 2752 c0 -1051 2 -1230 16 -1306 42 -244 153 -462 321 -632 71
-72 184 -164 201 -164 6 0 12 -4 14 -9 4 -12 138 -78 217 -108 120 -45 228
-65 376 -69 267 -6 497 63 714 216 86 61 211 185 261 258 19 28 37 51 40 51 3
0 21 -23 40 -51 53 -79 190 -210 282 -271 222 -146 406 -202 668 -202 162 0
285 21 395 66 17 7 32 13 35 14 94 32 262 135 354 218 36 32 38 37 25 54 -8
10 -107 111 -222 225 l-207 208 -68 -49 c-171 -123 -370 -139 -562 -44 -178
87 -300 290 -294 488 3 100 16 150 62 238 109 211 335 323 571 282 80 -14 185
-61 246 -110 l43 -36 222 220 c158 158 219 225 213 235 -10 17 -113 102 -174
144 -98 66 -262 136 -384 162 -97 22 -131 25 -260 25 -150 -1 -207 -8 -325
-41 -78 -22 -295 -121 -323 -148 -7 -6 -32 -24 -56 -41 -59 -40 -200 -182
-242 -245 -32 -47 -49 -61 -49 -41 0 5 -6 16 -12 23 -7 7 -26 31 -43 53 -29
39 -123 136 -181 185 -53 45 -208 136 -284 167 -172 71 -297 94 -485 88 -189
-5 -309 -34 -502 -122 -10 -4 -13 128 -13 641 l0 646 -315 0 -315 0 0 -1218z
m1282 -587 c135 -29 262 -113 337 -225 114 -169 127 -375 34 -552 -113 -215
-330 -322 -577 -284 -50 8 -168 54 -174 68 -2 4 -10 8 -19 8 -28 0 -156 143
-189 211 -182 372 93 799 503 783 29 -1 67 -5 85 -9z"/>
</g>
</svg>
