<svg id="Layer_1" data-name="Layer 1" xmlns="http://www.w3.org/2000/svg" viewBox="0 0 773.56 478.22"><defs><style>.cls-1{fill:none;stroke:#d2d6da;stroke-miterlimit:10;}</style></defs><g id="CenterRight"><polygon class="cls-1" points="433.68 98.18 433.62 98.21 433.62 126.21 457.87 140.21 481.87 126.36 481.87 98.38 482.12 98.23 482.12 98.21 458.52 84.58 434.32 98.55 433.68 98.18"/><polygon class="cls-1" points="481.87 126.36 481.87 126.38 506.11 140.38 506.3 140.27 506.3 139.98 530.36 126.09 530.36 98.38 506.11 84.38 482.12 98.23 482.12 126.21 481.87 126.36"/><polygon class="cls-1" points="506.3 140.27 506.3 167.98 530.55 181.98 554.79 167.98 554.79 139.98 530.55 125.98 530.36 126.09 530.36 126.38 506.3 140.27"/><polygon class="cls-1" points="433.98 42.75 433.85 42.68 433.85 14.78 409.89 0.95 385.64 14.95 385.64 42.95 409.89 56.95 410.08 56.84 410.08 56.55 433.98 42.75"/><polygon class="cls-1" points="482.34 14.7 482.34 14.68 458.09 0.68 433.85 14.68 433.85 14.78 434.14 14.95 434.14 42.66 434.32 42.55 458.44 56.48 482.09 42.83 482.09 14.85 482.34 14.7"/><polygon class="cls-1" points="434.14 42.85 434.14 42.95 410.08 56.84 410.08 84.55 433.68 98.18 457.87 84.21 458.52 84.58 458.57 84.55 458.57 56.55 458.44 56.48 458.09 56.68 434.14 42.85"/><polygon class="cls-1" points="434.14 42.85 434.14 42.66 433.98 42.75 434.14 42.85"/><polygon class="cls-1" points="530.42 42.65 530.29 42.58 530.29 14.68 506.33 0.85 482.34 14.7 482.34 42.68 482.09 42.83 482.09 42.85 506.33 56.85 506.52 56.74 506.52 56.45 530.42 42.65"/><polygon class="cls-1" points="578.78 14.58 554.54 0.58 530.29 14.58 530.29 14.68 530.58 14.85 530.58 42.56 530.77 42.45 554.89 56.38 578.78 42.58 578.78 14.58"/><polygon class="cls-1" points="530.58 42.75 530.58 42.85 506.52 56.74 506.52 84.45 530.77 98.45 555.02 84.45 555.02 56.45 554.89 56.38 554.54 56.58 530.58 42.75"/><polygon class="cls-1" points="530.58 42.75 530.58 42.56 530.42 42.65 530.58 42.75"/></g><polygon id="Lone" class="cls-1" points="288.7 265.58 288.7 293.58 312.95 307.58 337.2 293.58 337.2 265.58 312.95 251.58 288.7 265.58"/><g id="CenterLeft"><polygon class="cls-1" points="362.45 85.84 362.45 58.13 338.2 44.13 313.95 58.13 313.95 86.13 338.2 100.13 338.38 100.02 338.38 99.73 362.45 85.84"/><polygon class="cls-1" points="362.63 85.73 362.45 85.84 362.45 86.13 338.38 100.02 338.38 127.73 362.63 141.73 386.88 127.73 386.88 99.73 362.63 85.73"/><polygon class="cls-1" points="265.28 85.93 265.15 85.86 265.15 57.96 241.32 44.2 217.2 58.13 217.07 58.06 216.95 58.13 216.95 86.13 241.2 100.13 241.38 100.02 241.38 99.73 265.28 85.93"/><polygon class="cls-1" points="265.4 57.86 265.28 57.79 265.15 57.86 265.15 57.96 265.45 58.13 265.45 85.84 265.63 85.73 289.75 99.66 313.65 85.86 313.65 57.86 289.52 43.93 265.4 57.86"/><polygon class="cls-1" points="265.45 86.03 265.45 86.13 241.38 100.02 241.38 127.73 265.63 141.73 289.88 127.73 289.88 99.73 289.75 99.66 289.4 99.86 265.45 86.03"/><polygon class="cls-1" points="265.45 86.03 265.45 85.84 265.28 85.93 265.45 86.03"/><polygon class="cls-1" points="241.32 44.2 241.45 44.13 241.45 44.03 241.15 43.86 241.15 15.96 217.2 2.13 192.95 16.13 192.95 44.13 217.07 58.06 241.2 44.13 241.32 44.2"/><polygon class="cls-1" points="241.45 44.03 265.28 57.79 289.4 43.86 289.52 43.93 289.65 43.86 289.65 15.86 265.4 1.86 241.15 15.86 241.15 15.96 241.45 16.13 241.45 44.03"/></g><g id="Left"><polygon class="cls-1" points="48.7 14.88 24.75 1.05 0.5 15.05 0.5 43.05 24.75 57.05 49 43.05 49 42.96 48.7 42.79 48.7 14.88"/><polygon class="cls-1" points="72.95 0.79 48.7 14.79 48.7 14.88 49 15.05 49 42.96 72.95 56.79 97.2 42.79 97.2 14.79 72.95 0.79"/></g><g id="Right"><polygon class="cls-1" points="602.74 141.14 602.74 140.85 626.64 127.05 626.51 126.98 626.51 99.08 602.56 85.25 578.31 99.25 578.31 127.25 602.56 141.25 602.74 141.14"/><polygon class="cls-1" points="626.81 126.95 626.99 126.85 651.11 140.77 674.75 127.12 674.75 99.14 675.01 99 675.01 98.98 651.41 85.35 627.21 99.32 626.57 98.94 626.51 98.98 626.51 99.08 626.81 99.25 626.81 126.95"/><polygon class="cls-1" points="626.81 127.15 626.81 127.25 602.74 141.14 602.74 168.85 626.99 182.85 651.24 168.85 651.24 140.85 651.11 140.77 650.76 140.98 626.81 127.15"/><polygon class="cls-1" points="626.81 126.95 626.64 127.05 626.81 127.15 626.81 126.95"/><polygon class="cls-1" points="674.75 127.12 674.75 127.14 699 141.14 699.19 141.04 699.19 140.75 723.09 126.95 722.96 126.88 722.96 98.97 699 85.14 675.01 99 675.01 126.98 674.75 127.12"/><polygon class="cls-1" points="723.25 126.85 723.44 126.75 747.55 140.67 771.45 126.88 771.45 98.88 747.85 85.25 723.66 99.22 723.01 98.84 722.96 98.88 722.96 98.97 723.25 99.14 723.25 126.85"/><polygon class="cls-1" points="723.25 127.05 723.25 127.14 699.19 141.04 699.19 168.75 723.44 182.75 747.68 168.75 747.68 140.75 747.55 140.67 747.2 140.88 723.25 127.05"/><polygon class="cls-1" points="723.25 126.85 723.09 126.95 723.25 127.05 723.25 126.85"/><polygon class="cls-1" points="651.41 85.35 651.46 85.32 651.46 57.32 627.21 43.32 602.97 57.32 602.97 85.32 626.57 98.94 650.76 84.98 651.41 85.35"/><polygon class="cls-1" points="723.31 43.42 723.18 43.34 723.18 15.44 699.22 1.61 674.98 15.61 674.98 43.61 699.22 57.61 699.41 57.51 699.41 57.22 723.31 43.42"/><polygon class="cls-1" points="723.47 43.32 723.66 43.22 747.77 57.14 771.67 43.34 771.67 15.34 747.43 1.34 723.18 15.34 723.18 15.44 723.47 15.61 723.47 43.32"/><polygon class="cls-1" points="747.85 85.25 747.91 85.22 747.91 57.22 747.77 57.14 747.43 57.34 723.47 43.51 723.47 43.61 699.41 57.51 699.41 85.22 723.01 98.84 747.2 84.88 747.85 85.25"/><polygon class="cls-1" points="723.31 43.42 723.47 43.51 723.47 43.32 723.31 43.42"/><polygon class="cls-1" points="578.06 294.37 578.06 295.36 602.31 309.36 626.26 295.53 626.26 268.09 626.56 267.92 626.56 267.36 602.31 253.36 578.32 267.21 578.32 294.22 578.06 294.37"/><polygon class="cls-1" points="626.26 295.53 626.26 296.09 650.51 310.09 674.76 296.09 674.76 268.09 650.51 254.09 626.56 267.92 626.56 295.36 626.26 295.53"/><polygon class="cls-1" points="674.98 183.58 674.98 183.56 650.73 169.56 626.49 183.56 626.49 211.56 626.62 211.63 626.97 211.43 651.08 225.35 674.73 211.7 674.73 183.72 674.98 183.58"/><polygon class="cls-1" points="626.62 211.63 602.72 225.43 602.72 253.43 626.97 267.43 651.21 253.43 651.21 225.43 651.08 225.35 650.73 225.56 626.62 211.63"/><polygon class="cls-1" points="698.98 225.72 723.22 211.72 723.22 183.72 698.98 169.72 674.98 183.58 674.98 211.56 674.73 211.7 674.73 211.72 698.98 225.72"/><polygon class="cls-1" points="433.38 266.49 433.08 266.66 409.06 252.8 385.17 266.59 385.17 294.59 409.42 308.59 433.67 294.59 433.67 294.49 433.38 294.32 433.38 266.49"/><polygon class="cls-1" points="481.87 266.34 481.87 266.32 457.62 252.32 457.32 252.49 457.32 252.66 433.44 266.45 433.67 266.59 433.67 294.49 457.62 308.32 481.62 294.47 481.62 266.49 481.87 266.34"/><polygon class="cls-1" points="529.95 294.3 529.82 294.22 529.82 266.39 529.52 266.56 505.5 252.7 481.87 266.34 481.87 294.32 481.62 294.47 481.62 294.49 505.87 308.49 506.05 308.38 506.05 308.09 529.95 294.3"/><polygon class="cls-1" points="529.88 266.35 530.11 266.49 530.11 294.2 530.3 294.09 554.41 308.02 578.06 294.37 578.06 267.36 578.32 267.21 578.32 266.22 554.07 252.22 553.77 252.39 553.77 252.56 529.88 266.35"/><polygon class="cls-1" points="554.55 335.86 554.55 308.09 554.41 308.02 554.07 308.22 530.11 294.39 530.11 294.49 506.05 308.38 506.05 336.09 530.3 350.09 530.71 349.85 530.71 349.62 554.55 335.86"/><polygon class="cls-1" points="529.95 294.3 530.11 294.39 530.11 294.2 529.95 294.3"/><polygon class="cls-1" points="433.38 266.42 433.38 266.32 457.32 252.49 457.32 224.66 433.08 210.66 408.89 224.62 408.89 252.4 408.83 252.44 408.83 252.66 409.06 252.8 409.42 252.59 433.38 266.42"/><polygon class="cls-1" points="433.38 266.49 433.44 266.45 433.38 266.42 433.38 266.49"/><polygon class="cls-1" points="529.82 266.32 529.82 266.22 553.77 252.39 553.77 224.56 529.52 210.56 505.27 224.56 505.27 252.56 505.5 252.7 505.87 252.49 529.82 266.32"/><polygon class="cls-1" points="529.82 266.32 529.82 266.39 529.88 266.35 529.82 266.32"/><polygon class="cls-1" points="408.89 224.62 408.89 224.4 384.65 210.4 360.4 224.4 360.4 252.4 384.65 266.4 408.83 252.44 408.83 224.66 408.89 224.62"/><polygon class="cls-1" points="627.45 378.47 627.45 350.76 603.21 336.76 579.21 350.62 579.21 377.62 578.96 377.77 578.96 378.76 603.21 392.76 603.39 392.65 603.39 392.36 627.45 378.47"/><polygon class="cls-1" points="627.45 378.47 627.45 378.76 603.39 392.65 603.39 420.36 627.64 434.36 651.89 420.36 651.89 392.36 627.64 378.36 627.45 378.47"/><polygon class="cls-1" points="579.21 350.62 579.21 349.62 554.96 335.62 554.55 335.86 554.55 336.09 530.71 349.85 530.71 377.62 554.96 391.62 578.96 377.77 578.96 350.76 579.21 350.62"/><polygon class="cls-1" points="723.67 351.24 723.67 379.24 747.92 393.24 772.17 379.24 772.17 351.24 747.92 337.24 723.67 351.24"/><polygon class="cls-1" points="748.63 421.75 748.63 394.04 724.38 380.04 700.39 393.9 700.39 420.91 700.13 421.05 700.13 422.04 724.38 436.04 724.57 435.94 724.57 435.65 748.63 421.75"/><polygon class="cls-1" points="748.82 421.65 748.63 421.75 748.63 422.04 724.57 435.94 724.57 463.65 748.82 477.65 773.06 463.65 773.06 435.65 748.82 421.65"/><polygon class="cls-1" points="700.39 393.9 700.39 392.91 676.14 378.91 651.89 392.91 651.89 420.91 676.14 434.91 700.13 421.05 700.13 394.04 700.39 393.9"/></g></svg>